<mxfile host="app.diagrams.net" agent="Mozilla/5.0 (X11; Ubuntu; Linux x86_64; rv:133.0) Gecko/20100101 Firefox/133.0" version="25.0.3">
  <diagram name="Page-1" id="4rlV6-eBQoF9-eMR38gG">
    <mxGraphModel dx="1364" dy="764" grid="1" gridSize="10" guides="1" tooltips="1" connect="1" arrows="1" fold="1" page="1" pageScale="1" pageWidth="827" pageHeight="1169" math="0" shadow="0">
      <root>
        <mxCell id="0" />
        <mxCell id="1" parent="0" />
        <mxCell id="qRR1_Z2wBc2l9ip9wchm-19" style="edgeStyle=orthogonalEdgeStyle;rounded=0;orthogonalLoop=1;jettySize=auto;html=1;exitX=0.5;exitY=1;exitDx=0;exitDy=0;entryX=0.5;entryY=0;entryDx=0;entryDy=0;curved=1;" edge="1" parent="1" source="3" target="qRR1_Z2wBc2l9ip9wchm-8">
          <mxGeometry relative="1" as="geometry" />
        </mxCell>
        <mxCell id="qRR1_Z2wBc2l9ip9wchm-20" style="edgeStyle=orthogonalEdgeStyle;rounded=0;orthogonalLoop=1;jettySize=auto;html=1;exitX=0.5;exitY=1;exitDx=0;exitDy=0;entryX=0.5;entryY=0;entryDx=0;entryDy=0;curved=1;" edge="1" parent="1" source="3" target="qRR1_Z2wBc2l9ip9wchm-14">
          <mxGeometry relative="1" as="geometry" />
        </mxCell>
        <mxCell id="3" value="Management Node" style="whiteSpace=wrap;strokeWidth=2;rounded=1;glass=1;fillColor=#008a00;strokeColor=#005700;fontColor=#ffffff;" parent="1" vertex="1">
          <mxGeometry x="302" y="108" width="223" height="50" as="geometry" />
        </mxCell>
        <mxCell id="qRR1_Z2wBc2l9ip9wchm-12" value="" style="group;fillColor=#dae8fc;strokeColor=#6c8ebf;rounded=1;glass=1;" vertex="1" connectable="0" parent="1">
          <mxGeometry y="210" width="310" height="170" as="geometry" />
        </mxCell>
        <mxCell id="qRR1_Z2wBc2l9ip9wchm-8" value="Data Nodes" style="whiteSpace=wrap;html=1;rounded=1;glass=0;horizontal=1;verticalAlign=top;fillColor=#dae8fc;strokeColor=#6c8ebf;" vertex="1" parent="qRR1_Z2wBc2l9ip9wchm-12">
          <mxGeometry width="310" height="170" as="geometry" />
        </mxCell>
        <mxCell id="4" value="Data Node 1" style="rounded=1;arcSize=40;strokeWidth=2;fillColor=#0050ef;fontColor=#ffffff;strokeColor=#001DBC;glass=1;" parent="qRR1_Z2wBc2l9ip9wchm-12" vertex="1">
          <mxGeometry x="10" y="60" width="117" height="50" as="geometry" />
        </mxCell>
        <mxCell id="5" value="Data Node 2" style="rounded=1;arcSize=40;strokeWidth=2;fillColor=#0050ef;fontColor=#ffffff;strokeColor=#001DBC;glass=1;" parent="qRR1_Z2wBc2l9ip9wchm-12" vertex="1">
          <mxGeometry x="180" y="60" width="117" height="50" as="geometry" />
        </mxCell>
        <mxCell id="qRR1_Z2wBc2l9ip9wchm-11" style="edgeStyle=orthogonalEdgeStyle;rounded=0;orthogonalLoop=1;jettySize=auto;html=1;exitX=1;exitY=0.5;exitDx=0;exitDy=0;entryX=0;entryY=0.5;entryDx=0;entryDy=0;startArrow=classic;startFill=1;" edge="1" parent="qRR1_Z2wBc2l9ip9wchm-12" source="4" target="5">
          <mxGeometry relative="1" as="geometry" />
        </mxCell>
        <mxCell id="qRR1_Z2wBc2l9ip9wchm-13" value="" style="group;fillColor=#d80073;strokeColor=#A50040;rounded=1;glass=1;fontColor=#ffffff;" vertex="1" connectable="0" parent="1">
          <mxGeometry x="510" y="210" width="310" height="170" as="geometry" />
        </mxCell>
        <mxCell id="qRR1_Z2wBc2l9ip9wchm-14" value="SQL Nodes" style="whiteSpace=wrap;html=1;rounded=1;glass=0;horizontal=1;verticalAlign=top;fillColor=#f8cecc;strokeColor=#b85450;" vertex="1" parent="qRR1_Z2wBc2l9ip9wchm-13">
          <mxGeometry width="310" height="170" as="geometry" />
        </mxCell>
        <mxCell id="qRR1_Z2wBc2l9ip9wchm-15" value="SQL Node" style="rounded=1;arcSize=40;strokeWidth=2;fillColor=#d80073;fontColor=#ffffff;strokeColor=#A50040;glass=1;" vertex="1" parent="qRR1_Z2wBc2l9ip9wchm-13">
          <mxGeometry x="96.5" y="60" width="117" height="50" as="geometry" />
        </mxCell>
        <mxCell id="qRR1_Z2wBc2l9ip9wchm-22" style="edgeStyle=orthogonalEdgeStyle;rounded=0;orthogonalLoop=1;jettySize=auto;html=1;exitX=0.5;exitY=0;exitDx=0;exitDy=0;entryX=0.5;entryY=1;entryDx=0;entryDy=0;startArrow=classic;startFill=1;dashed=1;" edge="1" parent="1" source="qRR1_Z2wBc2l9ip9wchm-21" target="3">
          <mxGeometry relative="1" as="geometry" />
        </mxCell>
        <mxCell id="qRR1_Z2wBc2l9ip9wchm-23" value="Query /Response" style="edgeLabel;html=1;align=center;verticalAlign=middle;resizable=0;points=[];" vertex="1" connectable="0" parent="qRR1_Z2wBc2l9ip9wchm-22">
          <mxGeometry x="-0.0071" y="-4" relative="1" as="geometry">
            <mxPoint x="-57" y="110" as="offset" />
          </mxGeometry>
        </mxCell>
        <mxCell id="qRR1_Z2wBc2l9ip9wchm-21" value="Client" style="whiteSpace=wrap;strokeWidth=2;rounded=1;glass=1;fillColor=#fa6800;strokeColor=#C73500;fontColor=#000000;" vertex="1" parent="1">
          <mxGeometry x="302" y="440" width="223" height="50" as="geometry" />
        </mxCell>
      </root>
    </mxGraphModel>
  </diagram>
</mxfile>
